<svg xmlns="http://www.w3.org/2000/svg" width="36" height="36" viewBox="0 0 36 36"><defs><style>.a,.b{fill:none;}.b{stroke:#000;stroke-linecap:round;stroke-linejoin:round;stroke-width:1.5px;}</style></defs><rect class="a" width="36" height="36"/><rect class="b" width="27" height="7" rx="3.5" transform="translate(4 11)"/><path class="b" d="M70.188,128v9.984a1.109,1.109,0,0,1-1.109,1.109H49.109A1.109,1.109,0,0,1,48,137.984V128" transform="translate(-41.344 -110.25)"/><line class="b" y2="18" transform="translate(18 11)"/><path class="b" d="M134.276,33.4C132.707,34.966,128,34.966,128,34.966s0-4.707,1.569-6.276a3.328,3.328,0,0,1,4.707,4.707Z" transform="translate(-110.25 -23.872)"/><path class="b" d="M76.691,33.4c1.569,1.569,6.276,1.569,6.276,1.569s0-4.707-1.569-6.276A3.328,3.328,0,1,0,76.691,33.4Z" transform="translate(-65.216 -23.872)"/></svg>