<svg xmlns="http://www.w3.org/2000/svg" width="40.258" height="52" viewBox="0 0 40.258 52"><defs><style>.a{fill:#231f20;}</style></defs><g transform="translate(-807.542 -277.015)"><path class="a" d="M980.114,562.637a17.286,17.286,0,0,1-11.991,7.624,17.592,17.592,0,0,1-1.3-12.461,12.02,12.02,0,0,0,5.5,1.856,11.225,11.225,0,0,1,7.647,2.206A.572.572,0,0,1,980.114,562.637Z" transform="translate(-137.953 -244.102)"/><path class="a" d="M994.247,463.829a20.023,20.023,0,0,1-1.889,8.519.572.572,0,0,1-.913.169,12.545,12.545,0,0,0-7.883-3.464A11.874,11.874,0,0,1,976,466.671a18.162,18.162,0,0,1,16.34-11.407A20.116,20.116,0,0,1,994.247,463.829Z" transform="translate(-146.447 -154.961)"/><path class="a" d="M924.61,425.5a3.562,3.562,0,0,0-2.746,1.015,1.608,1.608,0,0,1,.216-.016,1.663,1.663,0,1,1-1.283,2.72,3.57,3.57,0,1,0,3.813-3.719Z" transform="translate(-98.458 -129.08)"/><path class="a" d="M844.837,298.354s-2.167-5.09-10.773-8.566c-7.053-2.849-7.358-9.771-7.239-12.177a.567.567,0,0,0-.762-.56c-7.619,2.838-7.911,10.923-7.911,10.923a7.585,7.585,0,0,1-1.173-4.316.568.568,0,0,0-.824-.525,7.62,7.62,0,0,0-3.282,10.149,5.022,5.022,0,0,1-2.724-1.669.568.568,0,0,0-.918.076,5.117,5.117,0,0,0,1.329,6.634c-8.524,13.2,2.161,31.44,17.734,30.668a.57.57,0,0,0,.466-.855C821.636,315.708,830.537,299.163,844.837,298.354ZM825.9,305.31c-7.023-.185-7.021-10.469,0-10.652C832.928,294.842,832.927,305.127,825.9,305.31Z" transform="translate(0 0)"/></g></svg>