<svg xmlns="http://www.w3.org/2000/svg" width="34.955" height="33.077" viewBox="0 0 34.955 33.077"><defs><style>.a{fill:#241c15;}</style></defs><g transform="translate(0 0)"><path class="a" d="M122.988,290.849a.683.683,0,1,0-.933-.25A.683.683,0,0,0,122.988,290.849Zm0,0" transform="translate(-113.637 -269.805)"/><path class="a" d="M6.553,46.585,9.991,52.54a2.731,2.731,0,1,0,4.73-2.731l-2.048-3.548,1.774-1.024a.683.683,0,0,0,.25-.933l-.888-1.538L26.885,40.2a2.048,2.048,0,0,0,1.66-3.069L26.277,33.2l1.45-2.2a.683.683,0,0,0,.022-.718l-1.365-2.365a.684.684,0,0,0-.632-.34l-2.627.158L20.6,23.38a2.03,2.03,0,0,0-1.748-1.024h-.026a2.03,2.03,0,0,0-1.724.944L8.188,34.661l-5.8,3.347a4.779,4.779,0,0,0,4.163,8.576Zm6.986,3.908a1.365,1.365,0,0,1-2.365,1.365L7.76,45.945l2.365-1.365,3.414,5.914ZM11.99,45.079,11.307,43.9l1.182-.683.683,1.182ZM25.411,28.973l.944,1.634-.841,1.274-1.626-2.817Zm-7.163-4.925a.683.683,0,0,1,1.174.014l7.941,13.754a.683.683,0,0,1-.574,1.024,2.507,2.507,0,0,0-.374.063l-8.4-14.549c.176-.227.2-.249.234-.306Zm-1.142,1.463L25,39.181,13.087,41.518,9.465,35.245ZM1.823,43.854a3.411,3.411,0,0,1,1.249-4.663l5.321-3.072,3.414,5.912L6.486,45.1a3.418,3.418,0,0,1-4.663-1.25Zm0,0" transform="translate(0 -20.829)"/><path class="a" d="M47,309.914a.683.683,0,0,0-.933-.25l-1.182.683a.684.684,0,0,1-.933-.25.683.683,0,0,0-1.182.683,2.051,2.051,0,0,0,2.8.75l1.182-.683a.683.683,0,0,0,.25-.933Zm0,0" transform="translate(-39.768 -288.437)"/><path class="a" d="M440.43,42.567l-3.8,2.117a.683.683,0,1,0,.664,1.193l3.8-2.117a.683.683,0,0,0-.664-1.193Zm0,0" transform="translate(-406.49 -39.58)"/><path class="a" d="M443.561,137.351l-2.638-.707a.683.683,0,1,0-.353,1.319l2.638.707a.683.683,0,1,0,.353-1.319Zm0,0" transform="translate(-410.019 -127.293)"/><path class="a" d="M384.223.506l-.707,2.638a.683.683,0,0,0,1.319.354L385.542.86a.683.683,0,1,0-1.319-.354Zm0,0" transform="translate(-357.311)"/></g></svg>