<svg xmlns="http://www.w3.org/2000/svg" width="25" height="25" viewBox="0 0 25 25"><defs><style>.a{fill:#fff;}</style></defs><g transform="translate(-21.5 -101.5)"><path class="a" d="M9.635,8.333H1.823A1.825,1.825,0,0,1,0,6.51V1.823A1.825,1.825,0,0,1,1.823,0H9.635a1.825,1.825,0,0,1,1.823,1.823V6.51A1.825,1.825,0,0,1,9.635,8.333ZM1.823,1.563a.261.261,0,0,0-.26.26V6.51a.261.261,0,0,0,.26.261H9.635A.261.261,0,0,0,9.9,6.51V1.823a.261.261,0,0,0-.261-.26Zm0,0" transform="translate(21.5 101.5)"/><path class="a" d="M9.635,227.915H1.823A1.825,1.825,0,0,1,0,226.093V215.155a1.825,1.825,0,0,1,1.823-1.823H9.635a1.825,1.825,0,0,1,1.823,1.823v10.938A1.825,1.825,0,0,1,9.635,227.915ZM1.823,214.895a.261.261,0,0,0-.26.261v10.938a.261.261,0,0,0,.26.26H9.635a.261.261,0,0,0,.261-.26V215.155a.261.261,0,0,0-.261-.261Zm0,0" transform="translate(21.5 -101.415)"/><path class="a" d="M286.968,349.665h-7.812a1.825,1.825,0,0,1-1.823-1.823v-4.687a1.825,1.825,0,0,1,1.823-1.823h7.813a1.825,1.825,0,0,1,1.823,1.823v4.688A1.825,1.825,0,0,1,286.968,349.665Zm-7.812-6.771a.261.261,0,0,0-.261.261v4.688a.261.261,0,0,0,.261.26h7.813a.261.261,0,0,0,.26-.26v-4.687a.261.261,0,0,0-.26-.261Zm0,0" transform="translate(-242.29 -223.165)"/><path class="a" d="M286.968,14.583h-7.812a1.825,1.825,0,0,1-1.823-1.823V1.823A1.825,1.825,0,0,1,279.155,0h7.813a1.825,1.825,0,0,1,1.823,1.823V12.76A1.825,1.825,0,0,1,286.968,14.583ZM279.155,1.563a.261.261,0,0,0-.261.26V12.76a.261.261,0,0,0,.261.261h7.813a.261.261,0,0,0,.26-.261V1.823a.261.261,0,0,0-.26-.26Zm0,0" transform="translate(-242.29 101.5)"/></g></svg>