<svg xmlns="http://www.w3.org/2000/svg" width="56" height="56" viewBox="0 0 56 56"><defs><style>.a{fill:#37559a;opacity:0;}</style></defs><rect class="a" width="56" height="56" rx="8"/><g transform="translate(11.619 -22.76)"><g transform="translate(0 35.81)"><path d="M28.932,54.488a13.222,13.222,0,0,0,.012-1.325c-.1-2.452-1.115-4.781-2.192-7.246-.185-.424-.374-.857-.561-1.3h.125a1.4,1.4,0,0,0,1.4-1.4V40.028a1.4,1.4,0,0,0-1.4-1.4h-4.8A3,3,0,0,0,18.6,40.947H16.275a.679.679,0,0,0,0,1.358H18.6a3,3,0,0,0,2.132,2.21L22.2,51.037a3.768,3.768,0,0,1-1.1,3.932,4.64,4.64,0,0,1-4.5.789,3.541,3.541,0,0,1-2.3-2.989l-.056-.411h.575a.679.679,0,0,0,.679-.679V49.8a2.328,2.328,0,0,0-1.645-2.223V36.489a.679.679,0,0,0-.679-.679H1.506a.679.679,0,0,0-.679.679v2.785a.679.679,0,0,0,1.358,0V37.168H4.578v4.086a.679.679,0,0,0,1.035.578L7.34,40.768l1.726,1.064a.679.679,0,0,0,1.035-.578V37.168H12.5V47.479H2.185V45.371a.679.679,0,0,0-1.358,0v6.09A4.643,4.643,0,0,0,0,54.114v5.346a2,2,0,0,0,1.993,2H3.618a4.932,4.932,0,0,0,9.771,0H23.571a4.932,4.932,0,0,0,9.77,0h.741a.679.679,0,0,0,.679-.679A6.315,6.315,0,0,0,28.932,54.488ZM8.743,40.038,7.7,39.392a.679.679,0,0,0-.713,0l-1.047.646v-2.87H8.743Zm16.044-.049h1.529a.042.042,0,0,1,.039.039v3.195a.042.042,0,0,1-.039.039H24.787a4.286,4.286,0,0,1,0-3.273Zm-3.411,3.266-.036,0a1.638,1.638,0,0,1-1.457-1.576c0-.017,0-.034,0-.051s0-.034,0-.051a1.638,1.638,0,0,1,1.635-1.586h1.829a5.52,5.52,0,0,0,0,3.273H21.518C21.47,43.262,21.422,43.259,21.375,43.255ZM2.185,48.836H13.175a.968.968,0,0,1,.967.967V51H2.185ZM8.5,64.351a3.58,3.58,0,0,1-3.509-2.9h7.019A3.581,3.581,0,0,1,8.5,64.351ZM3.6,60.1a4.946,4.946,0,0,1,9.8,0Zm17.922,0H14.772a6.305,6.305,0,0,0-12.537,0H1.993a.637.637,0,0,1-.635-.637V54.114a3.293,3.293,0,0,1,.5-1.756H12.875l.081.595a4.907,4.907,0,0,0,3.164,4.076,5.749,5.749,0,0,0,2.019.359,5.912,5.912,0,0,0,3.851-1.395,5.15,5.15,0,0,0,1.531-5.253l-1.373-6.12h2.569c.262.631.529,1.244.789,1.84,1.068,2.447,1.991,4.56,2.079,6.757a6.923,6.923,0,0,1-1.563,5.257,5.976,5.976,0,0,1-4.5,1.623Zm6.93,4.253a3.58,3.58,0,0,1-3.509-2.9h7.019A3.581,3.581,0,0,1,28.456,64.351ZM26.221,60.1A5.918,5.918,0,0,0,27,59.416a6.93,6.93,0,0,0,1.762-3.576A4.957,4.957,0,0,1,33.357,60.1H26.221Z" transform="translate(0 -35.81)"/><path d="M12.931,123.215a.744.744,0,1,0-.743-.745v0A.741.741,0,0,0,12.931,123.215Z" transform="translate(-11.283 -115.921)"/></g></g></svg>