<svg xmlns="http://www.w3.org/2000/svg" width="32" height="32" viewBox="0 0 32 32"><defs><style>.a{fill:#f3dcff;opacity:0;}.b,.c,.d{fill:none;}.c,.d{stroke:#000;stroke-width:1.5px;}.c{stroke-linecap:round;stroke-linejoin:round;}.d{stroke-miterlimit:10;}</style></defs><rect class="a" width="32" height="32" rx="16"/><g transform="translate(4 4)"><rect class="b" width="24" height="24"/><circle class="c" cx="5" cy="5" r="5" transform="translate(6.999 7)"/><path class="d" d="M26.98,42.406l-.112,1.74a.761.761,0,0,0,.232.6,9.431,9.431,0,0,0,3.81,2.2.761.761,0,0,0,.639-.1L33,45.882h1.5l1.451.967a.761.761,0,0,0,.639.1,9.43,9.43,0,0,0,3.81-2.2.761.761,0,0,0,.232-.6l-.112-1.74.75-1.3,1.563-.773a.761.761,0,0,0,.407-.5,9.43,9.43,0,0,0,0-4.4.761.761,0,0,0-.407-.5l-1.563-.773-.75-1.3.112-1.74a.761.761,0,0,0-.232-.6,9.431,9.431,0,0,0-3.81-2.2.761.761,0,0,0-.639.1l-1.451.967H33l-1.451-.967a.761.761,0,0,0-.639-.1,9.43,9.43,0,0,0-3.81,2.2.761.761,0,0,0-.232.6l.112,1.74-.75,1.3-1.563.773a.761.761,0,0,0-.407.5,9.431,9.431,0,0,0,0,4.4.761.761,0,0,0,.407.5l1.563.773Z" transform="translate(-21.75 -25.631)"/></g></svg>