<svg xmlns="http://www.w3.org/2000/svg" width="36" height="36" viewBox="0 0 36 36"><defs><style>.a,.b{fill:none;}.b{stroke:#000;stroke-linecap:round;stroke-linejoin:round;stroke-width:1.5px;}</style></defs><rect class="a" width="36" height="36"/><path class="b" d="M48,139.588v9.639a1.127,1.127,0,0,0,1.127,1.127H69.416a1.127,1.127,0,0,0,1.127-1.127v-9.639" transform="translate(-41.237 -119.921)"/><path class="b" d="M35.1,40H55.947a1.127,1.127,0,0,1,1.084.818l2.021,7.073H32l2.021-7.073A1.127,1.127,0,0,1,35.1,40Z" transform="translate(-27.491 -34.364)"/><path class="b" d="M41.017,96v2.254a4.509,4.509,0,1,1-9.017,0V96" transform="translate(-27.491 -82.474)"/><path class="b" d="M105.017,96v2.254a4.509,4.509,0,1,1-9.017,0V96" transform="translate(-82.474 -82.474)"/><path class="b" d="M169.017,96v2.254a4.509,4.509,0,1,1-9.017,0V96" transform="translate(-137.457 -82.474)"/></svg>